<?xml version="1.0" encoding="UTF-8"?>
<svg xmlns="http://www.w3.org/2000/svg" viewBox="0 0 800 520" fill="none">
  <defs>
    <pattern id="dot" width="24" height="24" patternUnits="userSpaceOnUse">
      <circle cx="12" cy="12" r="0.65" fill="#c9a050" opacity="0.35"/>
    </pattern>
  </defs>
  <rect width="800" height="520" fill="url(#dot)"/>
  <!-- corner florals -->
  <g stroke="#8a2438" stroke-width="1.1" opacity="0.55">
    <path d="M40 40 C55 28 72 34 78 52 C84 70 68 82 52 78 C36 74 28 58 40 40 Z" fill="#c45c6a" fill-opacity="0.12"/>
    <path d="M40 40 C48 48 46 58 38 62 M40 40 C52 44 58 52 56 62"/>
    <path d="M52 78 C58 88 54 98 44 102 M52 78 C62 72 74 74 80 84"/>
    <circle cx="40" cy="40" r="3.5" fill="#c9a050" fill-opacity="0.45"/>
  </g>
  <g transform="translate(800 0) scale(-1 1)" stroke="#8a2438" stroke-width="1.1" opacity="0.55">
    <path d="M40 40 C55 28 72 34 78 52 C84 70 68 82 52 78 C36 74 28 58 40 40 Z" fill="#c45c6a" fill-opacity="0.12"/>
    <path d="M40 40 C48 48 46 58 38 62 M40 40 C52 44 58 52 56 62"/>
    <path d="M52 78 C58 88 54 98 44 102 M52 78 C62 72 74 74 80 84"/>
    <circle cx="40" cy="40" r="3.5" fill="#c9a050" fill-opacity="0.45"/>
  </g>
  <g transform="translate(0 520) scale(1 -1)" stroke="#8a2438" stroke-width="1.1" opacity="0.55">
    <path d="M40 40 C55 28 72 34 78 52 C84 70 68 82 52 78 C36 74 28 58 40 40 Z" fill="#c45c6a" fill-opacity="0.12"/>
    <path d="M40 40 C48 48 46 58 38 62 M40 40 C52 44 58 52 56 62"/>
    <circle cx="40" cy="40" r="3.5" fill="#c9a050" fill-opacity="0.45"/>
  </g>
  <g transform="translate(800 520) scale(-1 -1)" stroke="#8a2438" stroke-width="1.1" opacity="0.55">
    <path d="M40 40 C55 28 72 34 78 52 C84 70 68 82 52 78 C36 74 28 58 40 40 Z" fill="#c45c6a" fill-opacity="0.12"/>
    <path d="M40 40 C48 48 46 58 38 62 M40 40 C52 44 58 52 56 62"/>
    <circle cx="40" cy="40" r="3.5" fill="#c9a050" fill-opacity="0.45"/>
  </g>
  <!-- center mandala -->
  <g transform="translate(400 300)" opacity="0.4">
    <circle r="52" stroke="#c9a050" stroke-width="0.8" fill="#c45c6a" fill-opacity="0.06"/>
    <circle r="38" stroke="#8a2438" stroke-width="0.6" fill="none"/>
    <circle r="24" stroke="#c9a050" stroke-width="0.5" fill="none"/>
    <path d="M0 -52 L0 52 M-52 0 L52 0 M-37 -37 L37 37 M37 -37 L-37 37" stroke="#8a2438" stroke-width="0.45" opacity="0.5"/>
    <circle r="5" fill="#c9a050" fill-opacity="0.35"/>
  </g>
  <!-- side vines -->
  <g stroke="#8a2438" stroke-width="0.7" opacity="0.35">
    <path d="M120 180 Q140 220 125 260 Q110 300 130 340"/>
    <path d="M680 180 Q660 220 675 260 Q690 300 670 340"/>
    <path d="M125 200 Q135 210 128 218 M675 200 Q665 210 672 218"/>
  </g>
</svg>
